<mxfile host="app.diagrams.net" modified="2021-07-09T16:17:37.980Z" agent="5.0 (Windows NT 10.0; Win64; x64) AppleWebKit/537.36 (KHTML, like Gecko) Chrome/91.0.4472.124 Safari/537.36" etag="XMUGSBDWhESA6rh4HpNQ" version="14.8.5" type="github">
  <diagram id="9SULPAmIjg4Mv03WZxEY" name="Page-1">
    <mxGraphModel dx="1038" dy="547" grid="1" gridSize="10" guides="1" tooltips="1" connect="1" arrows="1" fold="1" page="1" pageScale="1" pageWidth="827" pageHeight="1169" math="0" shadow="0">
      <root>
        <mxCell id="0" />
        <mxCell id="1" parent="0" />
        <mxCell id="DkAEpscrVjv94IYMqidg-56" style="edgeStyle=none;rounded=0;orthogonalLoop=1;jettySize=auto;html=1;entryX=0.362;entryY=-0.05;entryDx=0;entryDy=0;entryPerimeter=0;exitX=0.08;exitY=1.065;exitDx=0;exitDy=0;exitPerimeter=0;" edge="1" parent="1" source="DkAEpscrVjv94IYMqidg-2" target="DkAEpscrVjv94IYMqidg-44">
          <mxGeometry relative="1" as="geometry" />
        </mxCell>
        <mxCell id="DkAEpscrVjv94IYMqidg-57" style="edgeStyle=none;rounded=0;orthogonalLoop=1;jettySize=auto;html=1;entryX=0.358;entryY=0.03;entryDx=0;entryDy=0;entryPerimeter=0;exitX=0.644;exitY=1.105;exitDx=0;exitDy=0;exitPerimeter=0;" edge="1" parent="1" source="DkAEpscrVjv94IYMqidg-2" target="DkAEpscrVjv94IYMqidg-44">
          <mxGeometry relative="1" as="geometry" />
        </mxCell>
        <mxCell id="DkAEpscrVjv94IYMqidg-58" style="edgeStyle=none;rounded=0;orthogonalLoop=1;jettySize=auto;html=1;entryX=0.088;entryY=-0.05;entryDx=0;entryDy=0;entryPerimeter=0;exitX=0.491;exitY=1.085;exitDx=0;exitDy=0;exitPerimeter=0;" edge="1" parent="1" source="DkAEpscrVjv94IYMqidg-2" target="DkAEpscrVjv94IYMqidg-44">
          <mxGeometry relative="1" as="geometry" />
        </mxCell>
        <mxCell id="DkAEpscrVjv94IYMqidg-59" style="edgeStyle=none;rounded=0;orthogonalLoop=1;jettySize=auto;html=1;exitX=0.92;exitY=1.065;exitDx=0;exitDy=0;exitPerimeter=0;" edge="1" parent="1" source="DkAEpscrVjv94IYMqidg-2">
          <mxGeometry relative="1" as="geometry">
            <mxPoint x="360" y="280" as="targetPoint" />
          </mxGeometry>
        </mxCell>
        <mxCell id="DkAEpscrVjv94IYMqidg-60" style="edgeStyle=none;rounded=0;orthogonalLoop=1;jettySize=auto;html=1;entryX=0.505;entryY=-0.13;entryDx=0;entryDy=0;entryPerimeter=0;exitX=0.217;exitY=0.985;exitDx=0;exitDy=0;exitPerimeter=0;" edge="1" parent="1" source="DkAEpscrVjv94IYMqidg-2" target="DkAEpscrVjv94IYMqidg-44">
          <mxGeometry relative="1" as="geometry" />
        </mxCell>
        <mxCell id="DkAEpscrVjv94IYMqidg-1" value="" style="shape=table;startSize=0;container=1;collapsible=0;childLayout=tableLayout;" vertex="1" parent="1">
          <mxGeometry x="150" y="170" width="420" height="40" as="geometry" />
        </mxCell>
        <mxCell id="DkAEpscrVjv94IYMqidg-2" value="" style="shape=partialRectangle;collapsible=0;dropTarget=0;pointerEvents=0;fillColor=none;top=0;left=0;bottom=0;right=0;points=[[0,0.5],[1,0.5]];portConstraint=eastwest;" vertex="1" parent="DkAEpscrVjv94IYMqidg-1">
          <mxGeometry width="420" height="40" as="geometry" />
        </mxCell>
        <mxCell id="DkAEpscrVjv94IYMqidg-3" value="2" style="shape=partialRectangle;html=1;whiteSpace=wrap;connectable=0;overflow=hidden;fillColor=none;top=0;left=0;bottom=0;right=0;" vertex="1" parent="DkAEpscrVjv94IYMqidg-2">
          <mxGeometry width="60" height="40" as="geometry" />
        </mxCell>
        <mxCell id="DkAEpscrVjv94IYMqidg-4" value="3" style="shape=partialRectangle;html=1;whiteSpace=wrap;connectable=0;overflow=hidden;fillColor=none;top=0;left=0;bottom=0;right=0;" vertex="1" parent="DkAEpscrVjv94IYMqidg-2">
          <mxGeometry x="60" width="60" height="40" as="geometry" />
        </mxCell>
        <mxCell id="DkAEpscrVjv94IYMqidg-5" value="1" style="shape=partialRectangle;html=1;whiteSpace=wrap;connectable=0;overflow=hidden;fillColor=none;top=0;left=0;bottom=0;right=0;" vertex="1" parent="DkAEpscrVjv94IYMqidg-2">
          <mxGeometry x="120" width="60" height="40" as="geometry" />
        </mxCell>
        <mxCell id="DkAEpscrVjv94IYMqidg-6" value="0" style="shape=partialRectangle;html=1;whiteSpace=wrap;connectable=0;overflow=hidden;fillColor=none;top=0;left=0;bottom=0;right=0;" vertex="1" parent="DkAEpscrVjv94IYMqidg-2">
          <mxGeometry x="180" width="60" height="40" as="geometry" />
        </mxCell>
        <mxCell id="DkAEpscrVjv94IYMqidg-7" value="2" style="shape=partialRectangle;html=1;whiteSpace=wrap;connectable=0;overflow=hidden;fillColor=none;top=0;left=0;bottom=0;right=0;" vertex="1" parent="DkAEpscrVjv94IYMqidg-2">
          <mxGeometry x="240" width="60" height="40" as="geometry" />
        </mxCell>
        <mxCell id="DkAEpscrVjv94IYMqidg-8" value="5" style="shape=partialRectangle;html=1;whiteSpace=wrap;connectable=0;overflow=hidden;fillColor=none;top=0;left=0;bottom=0;right=0;" vertex="1" parent="DkAEpscrVjv94IYMqidg-2">
          <mxGeometry x="300" width="60" height="40" as="geometry" />
        </mxCell>
        <mxCell id="DkAEpscrVjv94IYMqidg-9" value="3" style="shape=partialRectangle;html=1;whiteSpace=wrap;connectable=0;overflow=hidden;fillColor=none;top=0;left=0;bottom=0;right=0;" vertex="1" parent="DkAEpscrVjv94IYMqidg-2">
          <mxGeometry x="360" width="60" height="40" as="geometry" />
        </mxCell>
        <mxCell id="DkAEpscrVjv94IYMqidg-24" value="" style="shape=table;startSize=0;container=1;collapsible=0;childLayout=tableLayout;" vertex="1" parent="1">
          <mxGeometry x="150" y="280" width="420" height="60" as="geometry" />
        </mxCell>
        <mxCell id="DkAEpscrVjv94IYMqidg-44" style="shape=partialRectangle;collapsible=0;dropTarget=0;pointerEvents=0;fillColor=none;top=0;left=0;bottom=0;right=0;points=[[0,0.5],[1,0.5]];portConstraint=eastwest;" vertex="1" parent="DkAEpscrVjv94IYMqidg-24">
          <mxGeometry width="420" height="20" as="geometry" />
        </mxCell>
        <mxCell id="DkAEpscrVjv94IYMqidg-45" value="0" style="shape=partialRectangle;html=1;whiteSpace=wrap;connectable=0;overflow=hidden;fillColor=none;top=0;left=0;bottom=0;right=0;" vertex="1" parent="DkAEpscrVjv94IYMqidg-44">
          <mxGeometry width="60" height="20" as="geometry" />
        </mxCell>
        <mxCell id="DkAEpscrVjv94IYMqidg-46" value="1" style="shape=partialRectangle;html=1;whiteSpace=wrap;connectable=0;overflow=hidden;fillColor=none;top=0;left=0;bottom=0;right=0;" vertex="1" parent="DkAEpscrVjv94IYMqidg-44">
          <mxGeometry x="60" width="60" height="20" as="geometry" />
        </mxCell>
        <mxCell id="DkAEpscrVjv94IYMqidg-47" value="2" style="shape=partialRectangle;html=1;whiteSpace=wrap;connectable=0;overflow=hidden;fillColor=none;top=0;left=0;bottom=0;right=0;" vertex="1" parent="DkAEpscrVjv94IYMqidg-44">
          <mxGeometry x="120" width="60" height="20" as="geometry" />
        </mxCell>
        <mxCell id="DkAEpscrVjv94IYMqidg-48" value="3" style="shape=partialRectangle;html=1;whiteSpace=wrap;connectable=0;overflow=hidden;fillColor=none;top=0;left=0;bottom=0;right=0;" vertex="1" parent="DkAEpscrVjv94IYMqidg-44">
          <mxGeometry x="180" width="60" height="20" as="geometry" />
        </mxCell>
        <mxCell id="DkAEpscrVjv94IYMqidg-49" value="4" style="shape=partialRectangle;html=1;whiteSpace=wrap;connectable=0;overflow=hidden;fillColor=none;top=0;left=0;bottom=0;right=0;" vertex="1" parent="DkAEpscrVjv94IYMqidg-44">
          <mxGeometry x="240" width="60" height="20" as="geometry" />
        </mxCell>
        <mxCell id="DkAEpscrVjv94IYMqidg-50" value="5" style="shape=partialRectangle;html=1;whiteSpace=wrap;connectable=0;overflow=hidden;fillColor=none;top=0;left=0;bottom=0;right=0;" vertex="1" parent="DkAEpscrVjv94IYMqidg-44">
          <mxGeometry x="300" width="60" height="20" as="geometry" />
        </mxCell>
        <mxCell id="DkAEpscrVjv94IYMqidg-51" value="6" style="shape=partialRectangle;html=1;whiteSpace=wrap;connectable=0;overflow=hidden;fillColor=none;top=0;left=0;bottom=0;right=0;" vertex="1" parent="DkAEpscrVjv94IYMqidg-44">
          <mxGeometry x="360" width="60" height="20" as="geometry" />
        </mxCell>
        <mxCell id="DkAEpscrVjv94IYMqidg-25" value="" style="shape=partialRectangle;collapsible=0;dropTarget=0;pointerEvents=0;fillColor=none;top=0;left=0;bottom=0;right=0;points=[[0,0.5],[1,0.5]];portConstraint=eastwest;" vertex="1" parent="DkAEpscrVjv94IYMqidg-24">
          <mxGeometry y="20" width="420" height="40" as="geometry" />
        </mxCell>
        <mxCell id="DkAEpscrVjv94IYMqidg-26" value="0" style="shape=partialRectangle;html=1;whiteSpace=wrap;connectable=0;overflow=hidden;fillColor=none;top=0;left=0;bottom=0;right=0;" vertex="1" parent="DkAEpscrVjv94IYMqidg-25">
          <mxGeometry width="60" height="40" as="geometry" />
        </mxCell>
        <mxCell id="DkAEpscrVjv94IYMqidg-27" value="0" style="shape=partialRectangle;html=1;whiteSpace=wrap;connectable=0;overflow=hidden;fillColor=none;top=0;left=0;bottom=0;right=0;" vertex="1" parent="DkAEpscrVjv94IYMqidg-25">
          <mxGeometry x="60" width="60" height="40" as="geometry" />
        </mxCell>
        <mxCell id="DkAEpscrVjv94IYMqidg-28" value="0" style="shape=partialRectangle;html=1;whiteSpace=wrap;connectable=0;overflow=hidden;fillColor=none;top=0;left=0;bottom=0;right=0;" vertex="1" parent="DkAEpscrVjv94IYMqidg-25">
          <mxGeometry x="120" width="60" height="40" as="geometry" />
        </mxCell>
        <mxCell id="DkAEpscrVjv94IYMqidg-29" value="0" style="shape=partialRectangle;html=1;whiteSpace=wrap;connectable=0;overflow=hidden;fillColor=none;top=0;left=0;bottom=0;right=0;" vertex="1" parent="DkAEpscrVjv94IYMqidg-25">
          <mxGeometry x="180" width="60" height="40" as="geometry" />
        </mxCell>
        <mxCell id="DkAEpscrVjv94IYMqidg-30" value="0" style="shape=partialRectangle;html=1;whiteSpace=wrap;connectable=0;overflow=hidden;fillColor=none;top=0;left=0;bottom=0;right=0;" vertex="1" parent="DkAEpscrVjv94IYMqidg-25">
          <mxGeometry x="240" width="60" height="40" as="geometry" />
        </mxCell>
        <mxCell id="DkAEpscrVjv94IYMqidg-31" value="0" style="shape=partialRectangle;html=1;whiteSpace=wrap;connectable=0;overflow=hidden;fillColor=none;top=0;left=0;bottom=0;right=0;" vertex="1" parent="DkAEpscrVjv94IYMqidg-25">
          <mxGeometry x="300" width="60" height="40" as="geometry" />
        </mxCell>
        <mxCell id="DkAEpscrVjv94IYMqidg-32" value="0" style="shape=partialRectangle;html=1;whiteSpace=wrap;connectable=0;overflow=hidden;fillColor=none;top=0;left=0;bottom=0;right=0;" vertex="1" parent="DkAEpscrVjv94IYMqidg-25">
          <mxGeometry x="360" width="60" height="40" as="geometry" />
        </mxCell>
        <mxCell id="DkAEpscrVjv94IYMqidg-33" value="原数组" style="rounded=0;whiteSpace=wrap;html=1;" vertex="1" parent="1">
          <mxGeometry x="10" y="165" width="100" height="50" as="geometry" />
        </mxCell>
        <mxCell id="DkAEpscrVjv94IYMqidg-34" value="新数组" style="rounded=0;whiteSpace=wrap;html=1;" vertex="1" parent="1">
          <mxGeometry x="10" y="310" width="100" height="50" as="geometry" />
        </mxCell>
        <mxCell id="DkAEpscrVjv94IYMqidg-55" style="edgeStyle=none;rounded=0;orthogonalLoop=1;jettySize=auto;html=1;entryX=1;entryY=0.5;entryDx=0;entryDy=0;" edge="1" parent="1" source="DkAEpscrVjv94IYMqidg-54" target="DkAEpscrVjv94IYMqidg-44">
          <mxGeometry relative="1" as="geometry" />
        </mxCell>
        <mxCell id="DkAEpscrVjv94IYMqidg-54" value="下标" style="rounded=0;whiteSpace=wrap;html=1;" vertex="1" parent="1">
          <mxGeometry x="650" y="275" width="110" height="30" as="geometry" />
        </mxCell>
      </root>
    </mxGraphModel>
  </diagram>
</mxfile>
